<?xml version="1.0" encoding="utf-8"?><!-- Uploaded to: SVG Repo, www.svgrepo.com, Generator: SVG Repo Mixer Tools -->
<svg fill="#000000" width="800px" height="800px" viewBox="0 0 1024 1024" xmlns="http://www.w3.org/2000/svg"><path d="M676.093 438.703c69.184 23.889 116.549 89.238 116.549 163.62 0 95.581-77.478 173.056-173.056 173.056-63.911 0-121.65-34.917-151.845-89.949-5.441-9.916-17.89-13.544-27.806-8.103s-13.544 17.89-8.103 27.806c37.318 68.013 108.74 111.206 187.755 111.206 118.199 0 214.016-95.813 214.016-214.016 0-91.985-58.568-172.788-144.14-202.337-10.691-3.692-22.351 1.983-26.043 12.674s1.983 22.351 12.674 26.043z"/><path d="M580.773 423.947c0-95.574-77.482-173.056-173.056-173.056s-173.056 77.482-173.056 173.056c0 95.574 77.482 173.056 173.056 173.056s173.056-77.482 173.056-173.056zm40.96 0c0 118.196-95.82 214.016-214.016 214.016s-214.016-95.82-214.016-214.016 95.82-214.016 214.016-214.016 214.016 95.82 214.016 214.016z"/><path d="M826.595 908.515c45.245 0 81.92-36.675 81.92-81.92V194.562c0-45.245-36.675-81.92-81.92-81.92H194.562c-45.245 0-81.92 36.675-81.92 81.92v632.033c0 45.245 36.675 81.92 81.92 81.92h632.033zm0 40.96H194.562c-67.866 0-122.88-55.014-122.88-122.88V194.562c0-67.866 55.014-122.88 122.88-122.88h632.033c67.866 0 122.88 55.014 122.88 122.88v632.033c0 67.866-55.014 122.88-122.88 122.88z"/><path d="M317.631 441.872h180.91c11.311 0 20.48-9.169 20.48-20.48s-9.169-20.48-20.48-20.48h-180.91c-11.311 0-20.48 9.169-20.48 20.48s9.169 20.48 20.48 20.48z"/><path d="M428.566 511.845v-180.91c0-11.311-9.169-20.48-20.48-20.48s-20.48 9.169-20.48 20.48v180.91c0 11.311 9.169 20.48 20.48 20.48s20.48-9.169 20.48-20.48z"/></svg>